PathFileType	4	(X/Y/Z)	C:\Users\Basilio\Documents\Thesis Gigler\squatting_fais\c3dfiles\075\SLS_back_pre1\markers_experimental.trc
DataRate	CameraRate	NumFrames	NumMarkers	Units	OrigDataRate	OrigDataStartFrame	OrigNumFrames
200.000000	200.000000	4	61	mm	200.000000	169	1357
Frame#	Time	FHD			LBHD			C7			T10			CLAV			LSHO			LUUPA			LMUPA			LDUPA			LLEP			LMEP			LRAD			LUL			LRFIN			RSHO			RUPA1			RMUPA			RDUPA			RLEP			RMEP			RRAD			RUL			RUFIN			LASI			RASI			USACR			LSACR			RSACR			LTHI1			LTHI2			LTHI3			LTHI4			LLFC			LMFC			LTIB1			LTIB2			LTIB3			LTIB4			LLMAL			LMMAL			LHEE			LMT1			LMT2			LMT5			RTHI			RTHI2			RTHI3			RTHI4			RLFC			RMFC			RTIB1			RTIB2			RTIB3			RTIB4			RLMAL			RMMAL			RHEE			RMT1			RMT2			RMT5			RBHD			
		X1	Y1	Z1	X2	Y2	Z2	X3	Y3	Z3	X4	Y4	Z4	X5	Y5	Z5	X6	Y6	Z6	X7	Y7	Z7	X8	Y8	Z8	X9	Y9	Z9	X10	Y10	Z10	X11	Y11	Z11	X12	Y12	Z12	X13	Y13	Z13	X14	Y14	Z14	X15	Y15	Z15	X16	Y16	Z16	X17	Y17	Z17	X18	Y18	Z18	X19	Y19	Z19	X20	Y20	Z20	X21	Y21	Z21	X22	Y22	Z22	X23	Y23	Z23	X24	Y24	Z24	X25	Y25	Z25	X26	Y26	Z26	X27	Y27	Z27	X28	Y28	Z28	X29	Y29	Z29	X30	Y30	Z30	X31	Y31	Z31	X32	Y32	Z32	X33	Y33	Z33	X34	Y34	Z34	X35	Y35	Z35	X36	Y36	Z36	X37	Y37	Z37	X38	Y38	Z38	X39	Y39	Z39	X40	Y40	Z40	X41	Y41	Z41	X42	Y42	Z42	X43	Y43	Z43	X44	Y44	Z44	X45	Y45	Z45	X46	Y46	Z46	X47	Y47	Z47	X48	Y48	Z48	X49	Y49	Z49	X50	Y50	Z50	X51	Y51	Z51	X52	Y52	Z52	X53	Y53	Z53	X54	Y54	Z54	X55	Y55	Z55	X56	Y56	Z56	X57	Y57	Z57	X58	Y58	Z58	X59	Y59	Z59	X60	Y60	Z60	X61	Y61	Z61	

170	0.845	-295.6836242675782	1721.203979492188	-809.5972290039065	-428.4744262695314	1591.531372070313	-881.4527587890627	-462.4856262207032	1477.169189453125	-823.014343261719	-464.8729858398439	1153.246215820313	-820.9461059570315	-318.6899414062501	1422.06201171875	-810.9179687500002	-342.9261779785157	1457.9462890625	-960.4077148437502	-214.5723571777344	1324.533325195313	-1060.709350585938	-178.5506134033203	1339.264526367188	-1030.828857421875	-151.0252990722657	1296.183349609375	-1063.339111328125	-72.22549438476564	1262.761108398438	-1052.816162109375	-112.417709350586	1197.398559570313	-1004.950744628906	nan	nan	nan	126.0553283691407	1246.68896484375	-892.324890136719	119.8133163452149	1283.036987304688	-790.4373168945315	-363.0242004394532	1451.938720703125	-662.2498168945314	-262.6437683105469	1301.177734375	-542.6801757812501	-217.8931121826172	1311.90869140625	-559.1938476562501	-205.5321960449219	1262.298461914063	-526.6817626953126	-140.5877838134766	1230.494506835938	-522.4450683593751	-154.5929107666016	1164.588745117188	-568.9413452148439	49.48505783081056	1270.912841796875	-724.2094726562501	78.50802612304689	1239.80517578125	-659.2251586914064	131.5403900146485	1296.212280273438	-744.6813354492189	-295.5600585937501	988.0667114257815	-949.9099731445315	-292.0681762695313	993.7868652343752	-694.9793701171876	-454.7175292968751	1053.66015625	-823.615417480469	-458.7056884765626	1022.1083984375	-850.9833984375002	-458.5219726562501	1022.975036621094	-793.4772949218752	-324.9853515625001	747.2574462890626	-1029.721557617188	-288.1270751953126	671.2197875976564	-1033.490356445313	-241.8338928222657	678.6534423828126	-1014.253540039063	-311.8224792480469	615.9472045898439	-1027.391845703125	-309.0474243164063	508.6557922363282	-1025.89892578125	-272.1425781250001	487.2264709472657	-900.7429809570315	-259.8336486816407	382.4115600585938	-998.2644653320315	-320.8292236328126	350.9130249023438	-1051.783447265625	-281.2213745117188	339.6421508789063	-1031.419311523438	-292.4081420898438	258.6103515625001	-1007.785583496094	-378.7575073242188	126.62646484375	-1037.568359375	-352.8656921386719	134.2089538574219	-955.4441528320315	-438.4920959472657	97.51758575439456	-1000.784484863281	-238.3860321044922	51.46448898315431	-961.3394165039065	-230.3623657226563	54.95140838623048	-1009.693359375	-266.8836364746094	42.54926300048829	-1064.14697265625	-342.7481689453126	784.5693969726565	-639.3652954101564	-301.2250976562501	734.2662353515626	-645.6506347656251	-270.3328857421876	742.9099121093751	-656.8619995117189	-323.9131164550782	652.7739257812501	-661.4207763671876	-330.4578857421876	499.7825622558595	-700.0070800781251	-296.6903686523438	502.5324707031251	-825.5039672851565	-288.1358947753907	356.5443420410157	-778.969421386719	-339.7676086425782	276.9772338867188	-725.4104614257814	-304.0853881835938	272.5559997558594	-759.1080322265626	-319.1603088378907	232.0391845703126	-798.146179199219	-392.8984680175782	115.72265625	-767.8872680664064	-365.4306640625001	141.2657928466797	-847.6578369140627	-450.4231567382814	98.47024536132815	-825.0123291015627	-246.6174926757813	56.68470764160158	-836.403503417969	-246.0717926025391	55.74034881591798	-793.819519042969	-284.0229797363282	35.4309196472168	-741.6997680664064	nan	nan	nan	
171	0.85	-295.9552612304688	1721.16845703125	-809.4073486328127	-428.754119873047	1591.548706054688	-881.1099243164065	-462.4879455566407	1477.109130859375	-822.6110839843752	-464.9277954101564	1153.207397460938	-820.5831298828127	-318.7236022949219	1422.024658203125	-810.5850219726565	-343.0038452148438	1457.958740234375	-959.8608398437502	-214.1422119140626	1325.835205078125	-1060.025512695313	-177.6376342773438	1340.521484375	-1029.75439453125	-150.5713958740235	1297.80126953125	-1062.599731445313	-70.95175170898439	1264.741577148438	-1051.7666015625	-110.820297241211	1199.110961914063	-1003.992492675781	nan	nan	nan	127.5703125	1249.930419921875	-891.7543945312502	121.6042938232422	1285.966186523438	-789.675231933594	-363.0190124511719	1452.019897460938	-661.9676513671876	-261.7557067871094	1302.392700195313	-542.5236206054689	-217.295639038086	1313.375	-559.4226684570314	-204.4270629882813	1263.740966796875	-526.4427490234376	-139.4343872070313	1232.219604492188	-522.3389282226564	-152.8140716552735	1166.291259765625	-568.7971801757814	51.03442001342775	1273.838134765625	-723.5314941406251	80.03401947021486	1242.7734375	-658.4435424804689	132.88818359375	1299.386474609375	-744.0925903320314	-295.6953430175782	987.9087524414065	-949.550476074219	-292.0957946777344	993.719177246094	-694.5823974609376	-454.7325744628907	1053.693237304688	-823.295593261719	-458.8691711425782	1022.084655761719	-850.6414184570315	-458.6078491210939	1022.929626464844	-793.1796875000002	-323.8549194335938	747.0291137695314	-1029.351318359375	-286.8757324218751	671.0679931640626	-1032.930053710938	-241.2737274169922	678.6868286132814	-1013.816467285156	-310.2026672363282	615.7306518554689	-1027.120483398438	-308.2712707519532	508.8270874023439	-1025.853149414063	-271.5978088378907	487.2091674804689	-900.6118774414065	-259.1240539550782	382.2373657226563	-998.1047973632815	-320.1136169433594	350.9561157226563	-1051.873779296875	-280.7362976074219	339.5794677734376	-1031.415283203125	-291.9381408691407	258.6954956054688	-1007.620971679688	-378.5975646972657	126.7424011230469	-1037.715698242188	-352.7332153320313	134.3513336181641	-955.5457153320315	-438.4373474121095	97.69236755371097	-1000.82763671875	-237.5671997070313	51.7681007385254	-961.0067138671877	-229.7281951904297	54.83016204833986	-1009.368896484375	-266.9219970703126	42.54694366455079	-1064.19921875	-342.7197265625001	784.4766845703127	-639.0785522460939	-301.1898498535157	734.2188110351564	-645.2562866210939	-270.3265075683594	742.8000488281251	-656.5750732421876	-323.9204101562501	652.6976318359376	-661.2467041015626	-330.4160156250001	499.7335205078126	-699.8389892578126	-296.7416687011719	502.4808044433595	-825.3297119140627	-288.1031799316407	356.4666137695313	-778.8889770507815	-339.7699279785157	276.9270324707032	-725.4104003906251	-304.0512390136719	272.4140014648438	-758.9791259765626	-319.1424560546876	231.9945831298829	-798.1154785156252	-392.8960876464845	115.6948165893555	-767.8859863281251	-365.3896789550782	141.2180480957032	-847.7366333007815	-450.3917541503907	98.45027923583987	-825.0151367187502	-246.6186065673829	56.66452789306642	-836.401306152344	-246.0491027832032	55.75039291381837	-793.8027954101565	-283.9862365722657	35.43671035766602	-741.7230224609376	nan	nan	nan	
172	0.855	-296.1806335449219	1721.118286132813	-809.1741333007815	-429.0628662109376	1591.454711914063	-880.7246704101565	-462.5176696777345	1477.052734375	-822.2659912109377	-464.9654846191407	1153.160034179688	-820.2567138671877	-318.7223205566407	1421.989135742188	-810.1868896484377	-343.1339416503907	1457.943237304688	-959.3187255859377	-213.7650146484376	1326.869384765625	-1059.31494140625	-177.2639923095703	1341.774291992188	-1029.008178710938	-149.7739562988282	1299.252075195313	-1061.801635742188	-70.30148315429689	1266.622802734375	-1051.021850585938	-109.6819839477539	1200.822631835938	-1003.224792480469	nan	nan	nan	128.8070983886719	1253.05615234375	-891.2413330078127	122.8381805419922	1289.249877929688	-789.0670166015627	-363.0961303710938	1452.058959960938	-661.7893676757814	-260.9822998046876	1303.387573242188	-542.0321655273439	-216.7191009521485	1314.561645507813	-558.6891479492189	-203.3119812011719	1265.085693359375	-526.1499633789064	-138.1007232666016	1234.06787109375	-521.9329223632814	-151.1437072753907	1168.09423828125	-568.3906860351564	52.45987701416017	1276.481323242188	-722.9417114257814	81.47727966308595	1245.623901367188	-657.8707885742189	134.0984802246094	1302.472778320313	-743.6565551757814	-295.7881469726563	987.9437255859377	-949.2214965820315	-292.1649169921876	993.692321777344	-694.2599487304689	-454.6969299316407	1053.700805664063	-822.8527832031252	-458.9631958007814	1022.041564941406	-850.3299560546877	-458.6668395996095	1022.888793945313	-792.8151855468752	-323.9822387695313	747.0977172851564	-1029.22705078125	-286.2800903320313	671.0508422851564	-1032.606079101563	-240.6807098388672	678.8182373046876	-1013.515014648438	-309.8766174316407	615.8087158203126	-1027.019653320313	-307.3980712890626	508.9684448242189	-1025.86962890625	-271.0615844726563	487.2010192871095	-900.4725341796877	-259.0848388671876	382.5250549316407	-998.3142089843752	-319.3986511230469	351.0097351074219	-1051.872680664063	-279.8998107910157	339.5814819335938	-1031.27099609375	-291.4761047363282	258.8106994628907	-1007.522644042969	-378.0018310546876	126.5923919677735	-1037.7587890625	-352.5740661621094	134.5191345214844	-955.634704589844	-438.4249877929689	97.82675933837893	-1000.853698730469	-238.2622680664063	51.5451126098633	-961.245300292969	-230.2843475341797	54.91131591796876	-1009.699462890625	-266.9562377929688	42.5495948791504	-1064.15380859375	-342.7729492187501	784.3819580078127	-638.8248901367189	-301.1574401855469	734.1608276367189	-645.0558471679689	-270.3709716796876	742.6791992187501	-656.2811889648439	-323.8945007324219	652.6057739257814	-660.9879150390626	-330.4434509277344	499.6372985839845	-699.6636962890626	-296.5620422363282	502.3946228027345	-825.0823974609377	-288.1071472167969	356.3829345703126	-778.8010864257815	-339.7208251953126	276.9070739746094	-725.3505249023439	-304.1470031738282	272.4443359375001	-759.0133056640626	-319.0829467773438	232.0025787353516	-798.0234985351565	-392.8795471191407	115.7089614868164	-767.8801879882814	-365.4170227050782	141.3059844970703	-847.760437011719	-450.3532714843751	98.43518066406253	-825.0916748046877	-246.6026458740235	56.60370254516603	-836.4085083007815	-246.0506286621094	55.76756668090822	-793.833923339844	-284.0043640136719	35.45247268676759	-741.6837158203126	nan	nan	nan	
173	0.86	-296.4484863281251	1721.098754882813	-808.9664306640627	-429.2185668945314	1591.258544921875	-880.479187011719	-462.6114196777345	1476.92041015625	-821.9194946289065	-464.9869689941407	1153.125366210938	-819.9527587890627	-318.7540588378907	1421.961181640625	-809.814392089844	-343.2874755859376	1457.97900390625	-958.7224731445315	-214.0334625244141	1327.8828125	-1058.491821289063	-177.3507843017578	1343.024780273438	-1028.463256835938	-148.8305358886719	1300.5341796875	-1060.966918945313	-69.21127319335939	1268.53759765625	-1050.212036132813	-108.2547302246094	1202.46728515625	-1002.364013671875	nan	nan	nan	130.11376953125	1256.055908203125	-890.7261352539065	123.7602691650391	1291.881469726563	-788.6633300781252	-363.1213989257813	1452.099609375	-661.5361938476564	-260.3344116210938	1304.096313476563	-541.8596801757814	-215.9727478027344	1315.691162109375	-558.8602294921876	-202.3655395507813	1266.46728515625	-526.0025634765626	-137.0139465332032	1235.801513671875	-521.9207153320314	-149.5047454833985	1169.700927734375	-568.1730346679689	53.78113174438478	1279.009155273438	-722.3631591796876	82.95753479003908	1248.560180664063	-657.2174682617189	135.3489532470703	1305.504760742188	-743.0202026367189	-295.8764038085938	987.9092407226565	-948.8958129882815	-292.2027587890626	993.6109008789065	-693.8856201171876	-454.6964721679689	1053.68896484375	-822.444519042969	-459.051483154297	1021.988525390625	-850.0634765625002	-458.7276306152345	1022.936828613281	-792.5112915039065	-323.4742736816407	747.1406860351564	-1028.955078125	-286.3408203125001	671.2764892578126	-1032.475952148438	-240.1130828857422	678.9421386718751	-1013.093688964844	-309.0542297363282	615.7683105468751	-1026.890747070313	-306.4381103515626	508.9698791503907	-1025.787963867188	-270.4877929687501	487.1394653320314	-900.363952636719	-258.4315185546876	382.5480651855469	-998.1179809570315	-318.5575866699219	351.1324157714844	-1051.843017578125	-279.2298583984376	339.6889648437501	-1031.17822265625	-290.9246520996094	258.9332580566407	-1007.39111328125	-377.9053649902344	126.8076477050782	-1037.875732421875	-352.4843139648438	134.680404663086	-955.7725830078127	-438.4049682617189	97.9989929199219	-1000.945190429688	-238.192123413086	51.64944076538087	-961.2154541015627	-230.2805480957032	54.83924102783205	-1009.686340332031	-266.9107666015626	42.55103302001954	-1064.153076171875	-342.8146362304688	784.3059692382815	-638.4761962890626	-301.1795043945313	734.1689453125001	-644.8977661132814	-270.3867187500001	742.5982666015626	-655.9598388671876	-323.9351196289063	652.5251464843751	-660.7299804687501	-330.4515075683594	499.5743713378907	-699.5078735351564	-296.8655395507813	502.3904418945314	-824.7220458984377	-288.0702819824219	356.3901367187501	-778.6525878906252	-339.7113037109376	276.8770446777344	-725.3166503906251	-304.1121215820313	272.3685913085938	-758.9520874023439	-319.0964660644532	231.9522552490235	-798.005065917969	-392.8858032226564	115.688346862793	-767.8886718750001	-365.3128662109376	141.2348175048828	-847.7134399414065	-450.3404235839845	98.44192504882815	-825.0916137695315	-246.5909729003907	56.55931472778322	-836.3901977539065	-246.1170501708985	55.73714065551759	-793.8286132812502	-284.0240478515626	35.47808074951173	-741.6835937500001	nan	nan	nan	
